<svg width="155" height="46" viewBox="0 0 155 46" fill="none" xmlns="http://www.w3.org/2000/svg"><path d="M.466 34.426c0-1.517.54-2.826 1.613-3.929 1.073-1.102 2.627-1.739 4.652-1.92l5.298-.435v-1.221c0-.979-.27-1.688-.804-2.128-.539-.434-1.269-.657-2.199-.657-.952 0-1.729.223-2.326.673-.598.45-.9 1.102-.9 1.967H1.112c.027-1.03.249-1.93.677-2.702a5.915 5.915 0 0 1 1.702-1.93c.709-.513 1.55-.907 2.528-1.176.978-.269 2.04-.404 3.188-.404 2.294 0 4.113.544 5.44 1.63 1.332 1.088 1.998 2.687 1.998 4.789v9.187h2.607v3.572H12.49l-.037-2.904h-.164c-.55 1.03-1.28 1.843-2.189 2.448-.91.606-2.104.906-3.584.906a6.579 6.579 0 0 1-2.411-.43 5.953 5.953 0 0 1-1.914-1.2A5.377 5.377 0 0 1 .916 36.75c-.302-.688-.45-1.465-.45-2.324zm4.875.523c0 .559.264.983.788 1.263.523.28 1.205.42 2.035.42 1.195 0 2.141-.415 2.829-1.243.692-.828 1.036-1.833 1.036-3.013v-.735l-5.625.482c-.698.072-1.053.476-1.063 1.216v1.61zm15.676 4.803V21.025h4.69v2.707c.576-1.004 1.321-1.78 2.247-2.334.92-.549 2.062-.823 3.415-.823 2.152 0 3.733.61 4.748 1.837 1.015 1.227 1.522 2.914 1.522 5.068v12.272h-4.69V27.806c0-1.103-.237-1.957-.713-2.568-.476-.61-1.274-.916-2.4-.916-1.295 0-2.305.42-3.035 1.263-.724.844-1.09 1.952-1.09 3.328v10.834l-4.694.005zm18.975 0V21.025h4.69v18.727h-4.69zm6.45-5.958h4.69c.195 1.89 1.348 2.837 3.462 2.837.904 0 1.676-.166 2.31-.492.635-.326.952-.849.952-1.568 0-.683-.264-1.175-.787-1.48-.524-.306-1.216-.55-2.073-.725l-3.294-.704c-3.198-.683-4.8-2.47-4.8-5.363 0-.812.17-1.568.502-2.261.338-.694.82-1.3 1.46-1.812.634-.513 1.411-.916 2.326-1.211.914-.295 1.961-.44 3.135-.44 2.173 0 3.96.512 5.35 1.542 1.39 1.03 2.136 2.583 2.237 4.664h-4.69c-.047-.885-.338-1.548-.862-1.983-.523-.434-1.205-.657-2.035-.657-.804 0-1.465.181-1.972.538-.508.358-.762.86-.762 1.496 0 .642.185 1.113.56 1.424.376.305.868.533 1.476.667l3.796.798c.703.14 1.375.341 2.01.616a5.55 5.55 0 0 1 1.638 1.05c.455.43.82.937 1.084 1.527.264.59.396 1.289.396 2.096 0 .813-.18 1.574-.534 2.278a5.472 5.472 0 0 1-1.538 1.848c-.672.528-1.502.947-2.49 1.258-.989.31-2.12.465-3.39.465-2.553 0-4.525-.553-5.915-1.661-1.39-1.108-2.147-2.686-2.242-4.746zm17.178-3.405c0-1.47.2-2.806.602-4.012.402-1.2.984-2.236 1.75-3.105a7.607 7.607 0 0 1 2.808-1.998c1.11-.466 2.379-.7 3.806-.7 1.433 0 2.702.234 3.818.7a7.644 7.644 0 0 1 2.818 1.997c.766.87 1.343 1.9 1.744 3.106.397 1.201.598 2.536.598 4.012 0 1.47-.201 2.805-.598 4-.396 1.196-.978 2.232-1.744 3.106a7.553 7.553 0 0 1-2.818 2.009c-1.11.466-2.385.699-3.818.699-1.427 0-2.696-.233-3.806-.7a7.516 7.516 0 0 1-2.808-2.008c-.761-.874-1.348-1.91-1.75-3.105-.396-1.196-.602-2.531-.602-4.001zm4.874 2.707c0 1.123.386 1.993 1.169 2.608.777.616 1.755.922 2.929.922 1.173 0 2.151-.3 2.929-.896.777-.6 1.168-1.475 1.168-2.634V27.66c0-1.15-.391-2.019-1.168-2.62-.778-.6-1.756-.895-2.93-.895-1.173 0-2.151.306-2.928.916-.778.611-1.169 1.476-1.169 2.604v5.43zm14.851 12.899V21.02h4.69v2.531a6.564 6.564 0 0 1 2.279-2.19c.92-.527 2.024-.786 3.31-.786 1.268 0 2.384.259 3.335.77a6.834 6.834 0 0 1 2.364 2.092c.623.88 1.083 1.92 1.385 3.121.301 1.201.449 2.48.449 3.83 0 1.377-.148 2.656-.449 3.841-.302 1.186-.762 2.22-1.385 3.106a6.862 6.862 0 0 1-2.364 2.101c-.951.513-2.067.772-3.336.772-1.269 0-2.368-.264-3.299-.792a6.505 6.505 0 0 1-2.29-2.19V46l-4.689-.005zm4.69-14.209c0 1.47.343 2.645 1.026 3.525.681.88 1.776 1.32 3.277 1.32 1.222 0 2.184-.326 2.887-.978.703-.652 1.052-1.527 1.052-2.63v-5.29c0-1.102-.349-1.972-1.047-2.619-.698-.647-1.66-.968-2.897-.968-1.501 0-2.596.44-3.278 1.32-.682.88-1.026 2.055-1.026 3.525l.006 2.795zm27.841 7.966V21.025h4.69v18.727h-4.69zm7.217 0V21.025h4.69v2.707c.576-1.004 1.322-1.78 2.247-2.334.92-.549 2.062-.823 3.415-.823 2.152 0 3.733.61 4.748 1.837 1.015 1.227 1.523 2.914 1.523 5.068v12.272h-4.69V27.806c0-1.103-.238-1.957-.714-2.568-.476-.61-1.274-.916-2.4-.916-1.295 0-2.305.42-3.035 1.263-.724.844-1.089 1.952-1.089 3.328v10.834l-4.695.005zm17.558-15.176v-3.55H155v3.55h-6.233v11.605h3.579v3.572h-8.269V24.575h-3.426zm-31.579-3.551c-1.877.813-2.966 2.532-2.966 2.532v-2.532h-2.961v18.727h4.69v-15.14h5.99v-3.587h-4.753z" fill="#2D3132"/><path d="M19.246 6.972l-.122-.445L7.577 0l-.455.12-3.32 5.584c-.026.036-.053.067-.074.109a.35.35 0 0 0-.016.041L.63 11.041l-.349.59-.042.067c-.344.58-.317 1.227.084 1.925l3.03 5.135.285.523.318.181.528-.015 6.101-.026c.635 0 1.338-.099 1.756-.808l.317-.543h-.005l6.593-11.098zm-15.761 5.71l3.786.14-3.305 5.61-1.274-2.319a2.154 2.154 0 0 1 .032-2.143l.761-1.289zm.365-5.767l1.168 1.802-1.945 3.297-2.205-.083L3.85 6.915zm.534-.895a.43.43 0 0 1 .222-.135l.106-.026 1.961.057L5.4 8.08 4.31 6.398a.336.336 0 0 1-.004-.238l.079-.14zm10.896 6.273a.29.29 0 0 1-.27.16l-2.05-.077 1.252-2.122 1.063 1.729a.298.298 0 0 1 .005.31zm-3.114.057l-3.764-.14 3.431-5.823 1.967 3.2-1.634 2.763zm.265-6.263l3.383.098-1.628 2.754-1.755-2.852zm-.413-.662l-2.03-3.308 6.064 3.427-4.034-.12zM9.47 2.536L11.23 5.4l-3.388-.1L9.47 2.536zm1.792 3.52l-3.42 5.797-2.025-3.126 1.644-2.79 3.801.119zm-5.82 3.313l1.818 2.8-3.4-.124 1.581-2.676zm1.755 9.311l-2.655.078 3.331-5.652 2.015 3.1-.815 1.377a2.226 2.226 0 0 1-1.877 1.098zm1.31-5.812l3.284.119-1.528 2.583-1.755-2.702zm4.072.15l2.257.083-2.95 4.964-1.2-1.843 1.893-3.204zm3.188-1.49l-1.18-1.916 2.168-3.67 1.745.984-2.733 4.601zM7.53.724l1.654.937L7.048 5.28l-2.183-.068L7.53.725zM.667 12.578l2.03.072-.576.979a2.852 2.852 0 0 0-.375 1.102L.9 13.303a1.656 1.656 0 0 1-.233-.725zm9.913 6.185l-1.66.005c.301-.227.56-.512.761-.848l.635-1.067 1.136 1.745c-.206.119-.48.165-.872.165z" fill="#FF3D00"/></svg>