<svg fill="none" height="31" viewBox="0 0 58 31" width="58" xmlns="http://www.w3.org/2000/svg"><path d="M0 21.35c0-2.323.806-4.323 2.41-5.999 1.606-1.676 3.93-2.656 6.965-2.933l7.92-.664V9.89c0-1.502-.403-2.577-1.209-3.249-.806-.664-1.897-1.004-3.288-1.004-1.423 0-2.585.34-3.478 1.028-.894.687-1.344 1.683-1.344 3.004H.956c.04-1.573.372-2.949 1.012-4.127A9.036 9.036 0 0 1 4.521 2.61C5.581 1.826 6.845 1.225 8.3.814c1.462-.41 3.05-.616 4.766-.616 3.439 0 6.15.83 8.142 2.498 1.992 1.66 2.988 4.102 2.988 7.32v14.03h3.897V29.5H17.975l-.055-4.442h-.245c-.822 1.573-1.913 2.822-3.273 3.739-1.36.925-3.146 1.383-5.36 1.383-1.311 0-2.513-.221-3.604-.656a8.875 8.875 0 0 1-2.861-1.834 8.212 8.212 0 0 1-1.905-2.767C.222 23.857 0 22.672 0 21.352zm7.288.807c0 .854.395 1.502 1.178 1.929.782.427 1.802.64 3.043.64 1.794 0 3.202-.632 4.237-1.897s1.55-2.798 1.55-4.609v-1.122l-8.411.735c-1.044.11-1.573.727-1.589 1.858z" fill="#fff"/><path d="M57.23 10.569l-.182-.68L39.91 0l-.672.182-4.925 8.466c-.04.055-.079.102-.103.166a.545.545 0 0 0-.023.063l-4.577 7.865-.514.893-.063.103c-.506.885-.467 1.866.126 2.917l4.49 7.778.427.79.474.27.783-.024 9.05-.04c.941 0 1.985-.15 2.601-1.217l.475-.822h-.008zm-23.39 8.655l5.62.214-4.909 8.505-1.889-3.518a3.325 3.325 0 0 1 .047-3.248zm.545-8.742l1.74 2.727-2.886 4.995-3.272-.126zm.79-1.352a.61.61 0 0 1 .333-.206l.158-.04 2.909.088-1.89 3.272-1.62-2.545a.525.525 0 0 1-.008-.364zm16.166 9.501c-.087.15-.222.253-.396.245l-3.05-.11 1.865-3.217 1.573 2.616a.449.449 0 0 1 .008.466zm-4.617.087l-5.588-.205 5.098-8.83 2.917 4.846zm.388-9.493l5.02.15-2.42 4.174zM46.51 8.22L43.499 3.2l9.004 5.194zm-3.785-4.37l2.608 4.34-5.027-.151zm2.663 5.327l-5.074 8.782-3.012-4.735 2.443-4.228zm-8.64 5.02l2.704 4.245-5.043-.19zm2.593 14.117l-3.936.12 4.948-8.57 2.988 4.696-1.21 2.087a3.29 3.29 0 0 1-2.79 1.668zm1.953-8.813l4.877.182-2.269 3.92zm6.04.229l3.343.126-4.38 7.526-1.778-2.799zm4.734-2.253l-1.747-2.909 3.217-5.565 2.585 1.494zM39.848 1.1l2.45 1.415-3.17 5.478-3.24-.087zm-10.19 17.967l3.012.11-.854 1.487c-.3.53-.482 1.098-.553 1.676l-1.257-2.174c-.221-.403-.332-.76-.348-1.099zm14.71 9.375l-2.465.016c.45-.348.83-.775 1.13-1.289l.94-1.62 1.684 2.648c-.3.174-.703.245-1.288.245z" fill="#ff3d00"/></svg>